# xmcd
#
# Track frame offsets:
#	150
#	12027
#	24514
#	38539
#	52419
#	84178
#	98645
#	119204
#	130883
#	151275
#	166764
#	180937
#	196997
#	228213
#	241645
#	256933
#	285147
#	311133
#	328076
#
# Disc length: 4637 seconds
#
# Revision: 3
# Processed by: cddbd v1.5.2PL0 Copyright (c) Steve Scherf et al.
# Submitted via: audiograbber 1.83.01
#
DISCID=e6121b13
DTITLE=Van Morrison - The Essential Van Morrison CD 1
DYEAR=2015
DGENRE=Rock
TTITLE0=Gloria (with Them)
TTITLE1=Here Comes the Night (with Them)
TTITLE2=Spanish Rose
TTITLE3=Brown Eyed Girl
TTITLE4=Astral Weeks
TTITLE5=The Way Young Lovers Do
TTITLE6=Moondance
TTITLE7=Crazy Love
TTITLE8=And It Stoned Me
TTITLE9=Into the Mystic
TTITLE10=Domino
TTITLE11=Wild Night
TTITLE12=Tupelo Honey
TTITLE13=Jackie Wilson Said (I'm in Heaven When You Smile)
TTITLE14=Warm Love
TTITLE15=Fair Play
TTITLE16=Caravan (The Band feat. Van Morrison) (Live)
TTITLE17=Hungry for Your Love
TTITLE18=Cleaning Windows (Live)
EXTD=
EXTT0=
EXTT1=
EXTT2=
EXTT3=
EXTT4=
EXTT5=
EXTT6=
EXTT7=
EXTT8=
EXTT9=
EXTT10=
EXTT11=
EXTT12=
EXTT13=
EXTT14=
EXTT15=
EXTT16=
EXTT17=
EXTT18=
PLAYORDER=
